<?xml version="1.0" standalone="no"?>
<!DOCTYPE svg PUBLIC "-//W3C//DTD SVG 20010904//EN"
 "http://www.w3.org/TR/2001/REC-SVG-20010904/DTD/svg10.dtd">
<svg version="1.0" xmlns="http://www.w3.org/2000/svg"
 width="512.000000pt" height="512.000000pt" viewBox="0 0 512.000000 512.000000"
 preserveAspectRatio="xMidYMid meet">

<g transform="translate(0.000000,512.000000) scale(0.100000,-0.100000)"
fill="#000000" stroke="none">
<path d="M2245 4954 c-160 -91 -300 -175 -312 -186 -25 -23 -31 -84 -13 -119
12 -22 60 -49 88 -49 10 0 110 52 222 116 112 64 210 118 217 121 11 4 13 -42
11 -243 l-3 -249 -685 -152 c-377 -84 -691 -151 -698 -150 -8 1 36 30 96 65
60 34 119 74 132 87 26 28 29 84 6 119 -20 32 -75 50 -109 37 -52 -20 -853
-482 -869 -502 -17 -20 -18 -97 -18 -1315 l0 -1293 23 -24 c30 -34 2184 -1211
2222 -1215 24 -2 246 115 1120 593 600 328 1100 608 1112 621 l23 25 0 1292
c0 1209 -2 1293 -18 1314 -25 33 -2199 1273 -2231 1273 -16 0 -142 -66 -316
-166z m1123 -514 c380 -217 690 -396 689 -397 -2 -1 -1294 282 -1374 302 l-23
5 0 246 c0 135 4 244 9 242 4 -1 319 -181 699 -398z m-1050 -388 c-166 -293
-1224 -2122 -1228 -2122 -6 0 -553 1781 -548 1784 2 1 134 31 293 66 160 35
558 123 885 196 327 73 603 133 613 133 16 1 14 -7 -15 -57z m1366 -139 c490
-108 892 -197 894 -199 5 -3 -542 -1784 -548 -1784 -4 0 -1062 1828 -1228
2122 -20 35 -28 58 -21 58 7 0 413 -89 903 -197z m-464 -990 c360 -625 657
-1140 658 -1144 2 -5 -586 -9 -1318 -9 -737 0 -1320 4 -1318 9 8 22 1314 2280
1318 2280 3 0 300 -511 660 -1136z m-2490 -531 l207 -677 -181 -108 c-99 -60
-196 -118 -213 -129 l-33 -20 1 819 c0 450 3 812 6 804 3 -7 99 -317 213 -689z
m3878 -520 l-3 -410 -211 127 -211 126 211 689 211 689 3 -406 c1 -223 1 -590
0 -815z m-849 -369 c-31 -32 -312 -326 -625 -653 -313 -327 -571 -595 -574
-595 -3 0 -261 268 -574 595 -313 327 -594 621 -625 653 l-55 57 1254 0 1254
0 -55 -57z m-2338 -365 c205 -215 423 -442 482 -504 l108 -113 -373 204 c-205
113 -516 282 -690 377 -175 95 -316 176 -315 181 2 7 397 247 408 247 3 0 174
-176 380 -392z m2866 271 c112 -67 203 -124 203 -128 0 -3 -119 -70 -263 -149
-144 -78 -455 -248 -690 -377 l-428 -234 108 113 c59 62 277 289 482 504 206
216 377 392 380 392 3 0 97 -55 208 -121z"/>
<path d="M2112 2896 c-91 -30 -169 -110 -192 -198 -13 -47 -5 -80 27 -113 51
-50 152 -18 168 54 15 67 97 89 141 37 48 -55 39 -76 -165 -365 -77 -108 -143
-209 -146 -224 -9 -35 10 -81 41 -102 19 -12 61 -15 243 -15 l219 0 31 26 c25
21 31 33 31 66 0 82 -29 101 -166 108 l-102 5 88 125 c115 161 143 218 148
298 6 81 -11 137 -57 198 -68 90 -204 134 -309 100z"/>
<path d="M2815 2897 c-65 -22 -99 -43 -141 -89 -73 -79 -79 -110 -79 -378 0
-230 1 -236 25 -285 53 -108 160 -175 279 -175 88 0 147 25 212 89 84 84 89
107 89 386 l0 232 -30 61 c-52 103 -140 161 -254 168 -34 2 -79 -2 -101 -9z
m158 -227 l27 -30 0 -196 c0 -217 -6 -241 -60 -264 -43 -18 -97 -3 -124 33
-19 26 -21 44 -24 212 -4 210 4 245 60 270 45 20 87 11 121 -25z"/>
<path d="M1574 4570 c-60 -24 -73 -112 -25 -161 52 -51 128 -33 157 37 12 29
12 39 0 68 -24 57 -75 79 -132 56z"/>
</g>
</svg>
